<svg width="16" height="16" viewBox="0 0 16 16" fill="none" xmlns="http://www.w3.org/2000/svg">
<path d="M5.41852 15.3544C6.05201 15.3544 6.56555 14.8617 6.56555 14.2539C6.56555 13.6461 6.05201 13.1533 5.41852 13.1533C4.78503 13.1533 4.27148 13.6461 4.27148 14.2539C4.27148 14.8617 4.78503 15.3544 5.41852 15.3544Z" fill="white"/>
<path d="M12.3873 15.3544C13.0208 15.3544 13.5343 14.8617 13.5343 14.2539C13.5343 13.6461 13.0208 13.1533 12.3873 13.1533C11.7538 13.1533 11.2402 13.6461 11.2402 14.2539C11.2402 14.8617 11.7538 15.3544 12.3873 15.3544Z" fill="white"/>
<path d="M15.4868 2.3287C15.4394 2.27259 15.3796 2.22726 15.3117 2.19597C15.2438 2.16468 15.1696 2.1482 15.0943 2.14772H4.48063L4.81199 3.12599H14.4265L13.0654 8.99558H5.41863L3.08892 1.91783C3.06372 1.84273 3.01996 1.77459 2.96138 1.71923C2.90279 1.66386 2.83112 1.62292 2.75247 1.59989L0.662362 0.983584C0.598094 0.964635 0.530566 0.958018 0.463633 0.964109C0.3967 0.9702 0.331672 0.988882 0.272264 1.01909C0.152282 1.08009 0.0624705 1.18432 0.0225857 1.30886C-0.017299 1.43339 -0.00398951 1.56803 0.0595862 1.68316C0.123162 1.79828 0.231796 1.88445 0.361591 1.92272L2.19171 2.46077L4.53161 9.55319L3.69556 10.2086L3.62929 10.2722C3.42249 10.5009 3.30527 10.7916 3.29783 11.0943C3.29039 11.3969 3.39318 11.6926 3.58851 11.9304C3.72745 12.0925 3.90402 12.2212 4.10407 12.3061C4.30413 12.3911 4.52212 12.4299 4.74062 12.4195H13.2489C13.3841 12.4195 13.5137 12.368 13.6093 12.2762C13.7049 12.1845 13.7587 12.0601 13.7587 11.9304C13.7587 11.8007 13.7049 11.6762 13.6093 11.5845C13.5137 11.4928 13.3841 11.4412 13.2489 11.4412H4.65905C4.60035 11.4393 4.54315 11.4229 4.49299 11.3936C4.44283 11.3643 4.4014 11.323 4.3727 11.2738C4.344 11.2247 4.32901 11.1692 4.32916 11.1129C4.32931 11.0565 4.34461 11.0011 4.37357 10.9521L5.60215 9.97385H13.4732C13.591 9.97661 13.7062 9.94011 13.7992 9.87054C13.8921 9.80098 13.9571 9.70266 13.983 9.59232L15.599 2.74446C15.6145 2.67154 15.6124 2.59619 15.593 2.52414C15.5736 2.45209 15.5372 2.38525 15.4868 2.3287Z" fill="white"/>
</svg>
