<svg width="15" height="16" viewBox="0 0 15 16" fill="none" xmlns="http://www.w3.org/2000/svg">
<path d="M6.09461 1.88405C7.11012 1.88316 8.1031 2.17129 8.94792 2.71197C9.79274 3.25266 10.4514 4.02162 10.8407 4.92157C11.23 5.82152 11.3323 6.81203 11.1348 7.76779C10.9372 8.72355 10.4487 9.60162 9.73091 10.2909C9.01316 10.9802 8.09846 11.4498 7.10252 11.6402C6.10659 11.8306 5.07416 11.7333 4.13586 11.3607C3.19756 10.988 2.39553 10.3567 1.83125 9.54658C1.26696 8.73648 0.965763 7.784 0.965763 6.80962C0.971919 5.50588 1.51411 4.25715 2.47449 3.33483C3.43487 2.41251 4.73582 1.89115 6.09461 1.88405ZM6.09461 0.961914C4.88921 0.961914 3.71088 1.30488 2.70863 1.94743C1.70637 2.58998 0.925213 3.50327 0.463927 4.5718C0.00264078 5.64033 -0.118053 6.81611 0.117109 7.95045C0.35227 9.08479 0.932725 10.1268 1.78507 10.9446C2.63742 11.7624 3.72337 12.3193 4.90561 12.545C6.08785 12.7706 7.31327 12.6548 8.42691 12.2122C9.54055 11.7696 10.4924 11.0201 11.1621 10.0584C11.8318 9.09678 12.1892 7.96619 12.1892 6.80962C12.1892 5.25871 11.5471 3.77132 10.4041 2.67467C9.26118 1.57801 7.711 0.961914 6.09461 0.961914Z" fill="white"/>
<path d="M14.8474 14.5872L11.3923 11.2495L10.7266 11.8838L14.1817 15.2215C14.2251 15.2634 14.2767 15.2967 14.3335 15.3195C14.3904 15.3423 14.4513 15.3542 14.5129 15.3544C14.5745 15.3546 14.6355 15.3432 14.6925 15.3208C14.7495 15.2983 14.8014 15.2654 14.8451 15.2237C14.8888 15.1821 14.9235 15.1326 14.9473 15.078C14.9711 15.0235 14.9834 14.965 14.9836 14.9059C14.9839 14.8468 14.9719 14.7883 14.9486 14.7336C14.9252 14.6789 14.8908 14.6291 14.8474 14.5872Z" fill="white"/>
</svg>
